<svg width="30" height="32" viewBox="0 0 30 32" fill="none" xmlns="http://www.w3.org/2000/svg">
<path d="M13.4167 15.8417V23.9167C13.4167 24.3366 13.5835 24.7393 13.8804 25.0363C14.1773 25.3332 14.5801 25.5 15 25.5C15.4199 25.5 15.8227 25.3332 16.1196 25.0363C16.4165 24.7393 16.5833 24.3366 16.5833 23.9167V15.8417C18.5056 15.4493 20.2136 14.3572 21.3764 12.777C22.5392 11.1968 23.0738 9.24119 22.8766 7.28925C22.6794 5.33731 21.7645 3.52812 20.3092 2.21243C18.8539 0.896742 16.9619 0.168282 15 0.168282C13.0381 0.168282 11.1461 0.896742 9.69084 2.21243C8.23554 3.52812 7.32061 5.33731 7.12342 7.28925C6.92624 9.24119 7.46085 11.1968 8.6236 12.777C9.78636 14.3572 11.4944 15.4493 13.4167 15.8417ZM15 3.33333C15.9395 3.33333 16.8578 3.61192 17.639 4.13385C18.4201 4.65579 19.0289 5.39764 19.3884 6.26559C19.7479 7.13353 19.842 8.0886 19.6587 9.01001C19.4755 9.93142 19.0231 10.7778 18.3588 11.4421C17.6945 12.1064 16.8481 12.5588 15.9267 12.7421C15.0053 12.9253 14.0502 12.8313 13.1823 12.4718C12.3143 12.1122 11.5725 11.5034 11.0505 10.7223C10.5286 9.94116 10.25 9.02279 10.25 8.08333C10.25 6.82355 10.7504 5.61537 11.6412 4.72458C12.532 3.83378 13.7402 3.33333 15 3.33333V3.33333ZM21.6658 19.8317C21.4579 19.788 21.2434 19.7857 21.0346 19.8249C20.8258 19.8642 20.6268 19.9441 20.4489 20.0603C20.271 20.1764 20.1177 20.3265 19.9978 20.5019C19.8779 20.6773 19.7937 20.8746 19.75 21.0825C19.7063 21.2904 19.7041 21.5049 19.7433 21.7137C19.7825 21.9225 19.8625 22.1216 19.9786 22.2995C20.0948 22.4774 20.2448 22.6307 20.4202 22.7506C20.5956 22.8705 20.7929 22.9547 21.0008 22.9983C24.595 23.7108 26.0833 24.9933 26.0833 25.5C26.0833 26.4183 22.2042 28.6667 15 28.6667C7.79583 28.6667 3.91667 26.4183 3.91667 25.5C3.91667 24.9933 5.405 23.7108 8.99917 22.935C9.20709 22.8913 9.40438 22.8071 9.57977 22.6872C9.75516 22.5673 9.90522 22.414 10.0214 22.2361C10.1375 22.0582 10.2175 21.8592 10.2567 21.6504C10.2959 21.4416 10.2937 21.2271 10.25 21.0192C10.2063 20.8112 10.1221 20.6139 10.0022 20.4386C9.88232 20.2632 9.72904 20.1131 9.55114 19.997C9.37324 19.8808 9.1742 19.8008 8.96539 19.7616C8.75658 19.7224 8.54209 19.7247 8.33417 19.7683C3.52083 20.8767 0.75 22.9508 0.75 25.5C0.75 29.6642 7.9225 31.8333 15 31.8333C22.0775 31.8333 29.25 29.6642 29.25 25.5C29.25 22.9508 26.4792 20.8767 21.6658 19.8317Z" fill="white"/>
</svg>
